# xmcd CD database file
#
# Track frame offsets:
#	150
#	20168
#	30182
#	37762
#	51142
#	65842
#	74251
#	93167
#	112015
#	120841
#	132195
#	144561
#	150778
#	156842
#	174335
#	191976
#	208677
#	230048
#	247120
#	253832
#	273091
#	283175
#
# Disc length: 3949 seconds
#
# Revision: 1
# Processed by: cddbd v1.5.2PL0 Copyright (c) Steve Scherf et al.
# Submitted via: CDex 1.51
#
DISCID=380f6b16
DTITLE=Dr. Gary Smalley - the DNA of Relationships [CD02)
DYEAR=2004
DGENRE=Book
TTITLE0=DNA of Relationships CD02 #01
TTITLE1=DNA of Relationships CD02 #02
TTITLE2=DNA of Relationships CD02 #03
TTITLE3=DNA of Relationships CD02 #04
TTITLE4=DNA of Relationships CD02 #05
TTITLE5=DNA of Relationships CD02 #06
TTITLE6=DNA of Relationships CD02 #07
TTITLE7=DNA of Relationships CD02 #08
TTITLE8=DNA of Relationships CD02 #09
TTITLE9=DNA of Relationships CD02 #10
TTITLE10=DNA of Relationships CD02 #11
TTITLE11=DNA of Relationships CD02 #12
TTITLE12=DNA of Relationships CD02 #13
TTITLE13=DNA of Relationships CD02 #14
TTITLE14=DNA of Relationships CD02 #15
TTITLE15=DNA of Relationships CD02 #16
TTITLE16=DNA of Relationships CD02 #17
TTITLE17=DNA of Relationships CD02 #18
TTITLE18=DNA of Relationships CD02 #19
TTITLE19=DNA of Relationships CD02 #20
TTITLE20=DNA of Relationships CD02 #21
TTITLE21=chapter
EXTD=YEAR: 2004
EXTT0=
EXTT1=
EXTT2=
EXTT3=
EXTT4=
EXTT5=
EXTT6=
EXTT7=
EXTT8=
EXTT9=
EXTT10=
EXTT11=
EXTT12=
EXTT13=
EXTT14=
EXTT15=
EXTT16=
EXTT17=
EXTT18=
EXTT19=
EXTT20=
EXTT21=
PLAYORDER=
